<svg width="264" height="164" viewBox="0 0 264 164" fill="none" xmlns="http://www.w3.org/2000/svg">
<rect width="264" height="164" rx="8" fill="#E5383B"/>
<path d="M38.8636 74.7841L39.5455 70.7273H58.6591L57.9773 74.7841H50.8523L47.6705 94H42.8068L45.9886 74.7841H38.8636ZM56.0398 94L58.9489 76.5455H63.642L63.1307 79.5909H63.3125C63.8125 78.5076 64.483 77.6894 65.3239 77.1364C66.1723 76.5758 67.0852 76.2955 68.0625 76.2955C68.3049 76.2955 68.5587 76.3106 68.8239 76.3409C69.0966 76.3636 69.339 76.4015 69.5511 76.4545L68.8239 80.7614C68.6117 80.6856 68.3087 80.625 67.9148 80.5795C67.5284 80.5265 67.161 80.5 66.8125 80.5C66.108 80.5 65.4527 80.6553 64.8466 80.9659C64.2405 81.2689 63.7292 81.6932 63.3125 82.2386C62.9034 82.7841 62.6345 83.4129 62.5057 84.125L60.8807 94H56.0398ZM76.2301 94.3409C74.4422 94.3409 72.9612 93.9773 71.7869 93.25C70.6127 92.5152 69.7869 91.4773 69.3097 90.1364C68.84 88.7879 68.7604 87.1932 69.071 85.3523C69.3741 83.5568 69.9839 81.9811 70.9006 80.625C71.8248 79.2689 72.9839 78.2121 74.3778 77.4545C75.7718 76.697 77.3248 76.3182 79.0369 76.3182C80.1884 76.3182 81.2301 76.5038 82.1619 76.875C83.1013 77.2386 83.8816 77.7917 84.5028 78.5341C85.1241 79.2689 85.5483 80.1894 85.7756 81.2955C86.0104 82.4015 86.0066 83.697 85.7642 85.1818L85.5483 86.5114H70.821L71.2869 83.5114H81.4688C81.5824 82.8144 81.5369 82.197 81.3324 81.6591C81.1278 81.1212 80.7869 80.7008 80.3097 80.3977C79.8324 80.0871 79.2453 79.9318 78.5483 79.9318C77.8362 79.9318 77.1695 80.1061 76.5483 80.4545C75.9271 80.803 75.4044 81.2614 74.9801 81.8295C74.5634 82.3902 74.2945 83 74.1733 83.6591L73.6392 86.6364C73.4877 87.553 73.518 88.3144 73.7301 88.9205C73.9498 89.5265 74.3286 89.9811 74.8665 90.2841C75.4044 90.5795 76.0862 90.7273 76.9119 90.7273C77.4498 90.7273 77.9536 90.6515 78.4233 90.5C78.9006 90.3485 79.3248 90.125 79.696 89.8295C80.0672 89.5265 80.3703 89.1515 80.6051 88.7045L85.0256 89C84.6165 90.0758 83.9953 91.0152 83.1619 91.8182C82.3286 92.6136 81.3248 93.2348 80.1506 93.6818C78.9839 94.1212 77.6771 94.3409 76.2301 94.3409ZM87.4773 94L90.3864 76.5455H95.2273L92.3182 94H87.4773ZM93.3068 74.2727C92.5871 74.2727 91.9924 74.0341 91.5227 73.5568C91.0606 73.072 90.8712 72.4962 90.9545 71.8295C91.0379 71.1477 91.3636 70.572 91.9318 70.1023C92.5 69.625 93.1439 69.3864 93.8636 69.3864C94.5833 69.3864 95.1705 69.625 95.625 70.1023C96.0795 70.572 96.2689 71.1477 96.1932 71.8295C96.1174 72.4962 95.7955 73.072 95.2273 73.5568C94.6667 74.0341 94.0265 74.2727 93.3068 74.2727ZM102.741 83.9091L101.06 94H96.2301L99.1392 76.5455H103.741L103.241 79.625H103.435C103.988 78.6023 104.768 77.7955 105.776 77.2045C106.791 76.6136 107.946 76.3182 109.241 76.3182C110.454 76.3182 111.465 76.5833 112.276 77.1136C113.094 77.6439 113.67 78.3977 114.003 79.375C114.344 80.3523 114.401 81.5227 114.173 82.8864L112.31 94H107.469L109.185 83.75C109.359 82.6818 109.223 81.8485 108.776 81.25C108.336 80.6439 107.628 80.3409 106.651 80.3409C105.999 80.3409 105.401 80.4811 104.855 80.7614C104.31 81.0417 103.851 81.4508 103.48 81.9886C103.116 82.5189 102.87 83.1591 102.741 83.9091ZM124.011 94.3409C122.231 94.3409 120.758 93.9621 119.591 93.2045C118.424 92.4394 117.602 91.3788 117.125 90.0227C116.655 88.6591 116.568 87.072 116.864 85.2614C117.152 83.4735 117.75 81.9091 118.659 80.5682C119.568 79.2273 120.723 78.1856 122.125 77.4432C123.527 76.6932 125.106 76.3182 126.864 76.3182C128.636 76.3182 130.106 76.7008 131.273 77.4659C132.439 78.2235 133.261 79.2841 133.739 80.6477C134.216 82.0114 134.307 83.5985 134.011 85.4091C133.716 87.1894 133.11 88.75 132.193 90.0909C131.277 91.4318 130.121 92.4773 128.727 93.2273C127.333 93.9697 125.761 94.3409 124.011 94.3409ZM124.489 90.5909C125.307 90.5909 126.03 90.3598 126.659 89.8977C127.295 89.428 127.822 88.7917 128.239 87.9886C128.663 87.178 128.958 86.2614 129.125 85.2386C129.292 84.2311 129.303 83.3371 129.159 82.5568C129.015 81.7689 128.712 81.1477 128.25 80.6932C127.795 80.2386 127.17 80.0114 126.375 80.0114C125.557 80.0114 124.83 80.2462 124.193 80.7159C123.557 81.178 123.03 81.8144 122.614 82.625C122.197 83.4356 121.905 84.3561 121.739 85.3864C121.58 86.3864 121.568 87.2803 121.705 88.0682C121.841 88.8485 122.14 89.4659 122.602 89.9205C123.064 90.3674 123.693 90.5909 124.489 90.5909ZM143.224 94L147.088 70.7273H152.009L148.827 89.9432H158.804L158.122 94H143.224ZM169.199 94.3409C167.411 94.3409 165.93 93.9773 164.756 93.25C163.581 92.5152 162.756 91.4773 162.278 90.1364C161.809 88.7879 161.729 87.1932 162.04 85.3523C162.343 83.5568 162.953 81.9811 163.869 80.625C164.794 79.2689 165.953 78.2121 167.347 77.4545C168.741 76.697 170.294 76.3182 172.006 76.3182C173.157 76.3182 174.199 76.5038 175.131 76.875C176.07 77.2386 176.85 77.7917 177.472 78.5341C178.093 79.2689 178.517 80.1894 178.744 81.2955C178.979 82.4015 178.975 83.697 178.733 85.1818L178.517 86.5114H163.79L164.256 83.5114H174.438C174.551 82.8144 174.506 82.197 174.301 81.6591C174.097 81.1212 173.756 80.7008 173.278 80.3977C172.801 80.0871 172.214 79.9318 171.517 79.9318C170.805 79.9318 170.138 80.1061 169.517 80.4545C168.896 80.803 168.373 81.2614 167.949 81.8295C167.532 82.3902 167.263 83 167.142 83.6591L166.608 86.6364C166.456 87.553 166.487 88.3144 166.699 88.9205C166.919 89.5265 167.297 89.9811 167.835 90.2841C168.373 90.5795 169.055 90.7273 169.881 90.7273C170.419 90.7273 170.922 90.6515 171.392 90.5C171.869 90.3485 172.294 90.125 172.665 89.8295C173.036 89.5265 173.339 89.1515 173.574 88.7045L177.994 89C177.585 90.0758 176.964 91.0152 176.131 91.8182C175.297 92.6136 174.294 93.2348 173.119 93.6818C171.953 94.1212 170.646 94.3409 169.199 94.3409ZM187.219 100.909C185.643 100.909 184.329 100.693 183.276 100.261C182.23 99.8371 181.435 99.2576 180.889 98.5227C180.351 97.7879 180.056 96.9621 180.003 96.0455L184.594 95.4432C184.677 95.7992 184.836 96.1288 185.071 96.4318C185.313 96.7348 185.658 96.9773 186.105 97.1591C186.56 97.3409 187.147 97.4318 187.866 97.4318C188.92 97.4318 189.836 97.1742 190.616 96.6591C191.397 96.1515 191.878 95.2992 192.06 94.1023L192.582 90.9091H192.378C192.09 91.3939 191.696 91.8523 191.196 92.2841C190.704 92.7159 190.101 93.0682 189.389 93.3409C188.685 93.6136 187.87 93.75 186.946 93.75C185.628 93.75 184.484 93.447 183.514 92.8409C182.552 92.2273 181.855 91.2917 181.423 90.0341C180.999 88.7689 180.946 87.1705 181.264 85.2386C181.598 83.2614 182.196 81.6098 183.06 80.2841C183.923 78.9583 184.946 77.9659 186.128 77.3068C187.31 76.6477 188.541 76.3182 189.821 76.3182C190.798 76.3182 191.586 76.4848 192.185 76.8182C192.791 77.1439 193.257 77.553 193.582 78.0455C193.908 78.5303 194.139 79.0076 194.276 79.4773H194.469L194.946 76.5455H199.753L196.821 94.1705C196.586 95.6629 196.022 96.9053 195.128 97.8977C194.241 98.8977 193.116 99.6477 191.753 100.148C190.389 100.655 188.878 100.909 187.219 100.909ZM189.037 90.1136C189.81 90.1136 190.503 89.9205 191.116 89.5341C191.738 89.1402 192.257 88.5795 192.673 87.8523C193.09 87.1174 193.382 86.2386 193.548 85.2159C193.715 84.1932 193.711 83.3068 193.537 82.5568C193.37 81.7992 193.045 81.2121 192.56 80.7955C192.082 80.3788 191.454 80.1705 190.673 80.1705C189.87 80.1705 189.166 80.3864 188.56 80.8182C187.954 81.2424 187.45 81.8333 187.048 82.5909C186.654 83.3485 186.378 84.2235 186.219 85.2159C186.052 86.2235 186.045 87.0947 186.196 87.8295C186.355 88.5568 186.67 89.1212 187.139 89.5227C187.609 89.9167 188.241 90.1136 189.037 90.1136ZM205.628 94.3295C204.522 94.3295 203.563 94.1364 202.753 93.75C201.95 93.3561 201.359 92.7727 200.98 92C200.601 91.2273 200.507 90.2689 200.696 89.125C200.863 88.1553 201.177 87.3447 201.639 86.6932C202.109 86.0341 202.681 85.5038 203.355 85.1023C204.029 84.7008 204.776 84.3939 205.594 84.1818C206.42 83.9697 207.272 83.8258 208.151 83.75C209.166 83.6439 209.991 83.5417 210.628 83.4432C211.272 83.3447 211.753 83.2045 212.071 83.0227C212.389 82.8333 212.582 82.553 212.651 82.1818V82.1136C212.764 81.4015 212.632 80.8485 212.253 80.4545C211.882 80.053 211.287 79.8523 210.469 79.8523C209.605 79.8523 208.87 80.0417 208.264 80.4205C207.666 80.7992 207.238 81.2803 206.98 81.8636L202.571 81.5C202.965 80.4394 203.56 79.5227 204.355 78.75C205.158 77.9697 206.124 77.3712 207.253 76.9545C208.382 76.5303 209.647 76.3182 211.048 76.3182C212.018 76.3182 212.923 76.4318 213.764 76.6591C214.613 76.8864 215.344 77.2386 215.957 77.7159C216.579 78.1932 217.026 78.8068 217.298 79.5568C217.579 80.2992 217.635 81.1894 217.469 82.2273L215.503 94H210.912L211.321 91.5795H211.185C210.813 92.125 210.359 92.6061 209.821 93.0227C209.283 93.4318 208.666 93.7538 207.969 93.9886C207.272 94.2159 206.491 94.3295 205.628 94.3295ZM207.571 90.9886C208.276 90.9886 208.923 90.8485 209.514 90.5682C210.113 90.2803 210.605 89.8939 210.991 89.4091C211.385 88.9242 211.635 88.375 211.741 87.7614L212.037 85.9091C211.885 86.0076 211.666 86.0947 211.378 86.1705C211.098 86.2462 210.791 86.3182 210.457 86.3864C210.132 86.447 209.802 86.5038 209.469 86.5568C209.135 86.6023 208.836 86.6477 208.571 86.6932C207.988 86.7765 207.465 86.9091 207.003 87.0909C206.541 87.2727 206.166 87.5189 205.878 87.8295C205.59 88.1326 205.412 88.5114 205.344 88.9659C205.238 89.625 205.393 90.1288 205.81 90.4773C206.234 90.8182 206.821 90.9886 207.571 90.9886ZM227.963 70.7273L224.099 94H219.259L223.122 70.7273H227.963Z" fill="white"/>
</svg>
