<svg width="24" height="24" viewBox="0 0 24 24" fill="none" xmlns="http://www.w3.org/2000/svg">
<mask id="mask0_42_377" style="mask-type:alpha" maskUnits="userSpaceOnUse" x="0" y="0" width="24" height="24">
<rect width="24" height="24" fill="#D9D9D9"/>
</mask>
<g mask="url(#mask0_42_377)">
<path d="M13.4 21.9L12 20.5L15.55 16.95L7.04998 8.45001L3.49998 12L2.09998 10.6L3.49998 9.15001L2.09998 7.75001L4.19998 5.65001L2.79998 4.20001L4.19998 2.80001L5.64998 4.20001L7.74998 2.10001L9.14998 3.50001L10.6 2.10001L12 3.50001L8.44998 7.05001L16.95 15.55L20.5 12L21.9 13.4L20.5 14.85L21.9 16.25L19.8 18.35L21.2 19.8L19.8 21.2L18.35 19.8L16.25 21.9L14.85 20.5L13.4 21.9Z" fill="#F5F3F4"/>
</g>
</svg>
